HIERARCHY
ROOT Hips
{
	OFFSET 0.000000 0.000000 0.000000
	CHANNELS 6 Xposition Yposition Zposition Xrotation Yrotation Zrotation
	JOINT LeftUpLeg_virtual
	{
		OFFSET 0.000000 0.000000 0.000000
		CHANNELS 3 Xrotation Yrotation Zrotation
		JOINT LeftUpLeg
		{
			OFFSET 11.394100 -6.187798 -0.413800
			CHANNELS 3 Xrotation Yrotation Zrotation
			JOINT LeftLeg
			{
				OFFSET 0.430247 -32.302673 3.732800
				CHANNELS 3 Xrotation Yrotation Zrotation
				JOINT LeftFoot
				{
					OFFSET -0.430247 -48.264931 -6.423300
					CHANNELS 3 Xrotation Yrotation Zrotation
					JOINT LeftToeBase
					{
						OFFSET 4.230900 -16.068199 23.438400
						CHANNELS 3 Xrotation Yrotation Zrotation
						JOINT LeftToe_End
						{
							OFFSET 4.510700 0.695400 19.974600
							CHANNELS 3 Xrotation Yrotation Zrotation
							End Site
							{
								OFFSET 0 0 0
							}
						}
					}
				}
			}
		}
	}
	JOINT RightUpLeg_virtual
	{
		OFFSET 0.000000 0.000000 0.000000
		CHANNELS 3 Xrotation Yrotation Zrotation
		JOINT RightUpLeg
		{
			OFFSET -11.333700 -6.187798 -0.413800
			CHANNELS 3 Xrotation Yrotation Zrotation
			JOINT RightLeg
			{
				OFFSET -0.430392 -32.302628 3.733000
				CHANNELS 3 Xrotation Yrotation Zrotation
				JOINT RightFoot
				{
					OFFSET 0.430392 -48.264973 -6.423500
					CHANNELS 3 Xrotation Yrotation Zrotation
					JOINT RightToeBase
					{
						OFFSET -4.230900 -16.068199 23.438400
						CHANNELS 3 Xrotation Yrotation Zrotation
						JOINT RightToe_End
						{
							OFFSET -4.510700 0.695400 19.974600
							CHANNELS 3 Xrotation Yrotation Zrotation
							End Site
							{
								OFFSET 0 0 0
							}
						}
					}
				}
			}
		}
	}
	JOINT Spine_virtual
	{
		OFFSET 0.000000 0.000000 0.000000
		CHANNELS 3 Xrotation Yrotation Zrotation
		JOINT Spine
		{
			OFFSET -0.002400 12.777504 0.315300
			CHANNELS 3 Xrotation Yrotation Zrotation
			JOINT Spine1
			{
				OFFSET -0.002067 5.816869 0.032633
				CHANNELS 3 Xrotation Yrotation Zrotation
				JOINT Spine1_split
				{
					OFFSET -0.002067 5.816869 0.032633
					CHANNELS 3 Xrotation Yrotation Zrotation
					JOINT Spine2
					{
						OFFSET -0.002067 5.816869 0.032633
						CHANNELS 3 Xrotation Yrotation Zrotation
						JOINT Neck_virtual
						{
							OFFSET 0.000000 0.000000 0.000000
							CHANNELS 3 Xrotation Yrotation Zrotation
							JOINT Neck
							{
								OFFSET -0.003700 21.199493 -0.826900
								CHANNELS 3 Xrotation Yrotation Zrotation
								JOINT Head
								{
									OFFSET 0.000000 20.442200 4.834800
									CHANNELS 3 Xrotation Yrotation Zrotation
									JOINT HeadTop_End
									{
										OFFSET 0.000000 34.668396 4.968400
										CHANNELS 3 Xrotation Yrotation Zrotation
										End Site
										{
											OFFSET 0 0 0
										}
									}
								}
							}
						}
						JOINT LeftShoulder_virtual
						{
							OFFSET 0.000000 0.000000 0.000000
							CHANNELS 3 Xrotation Yrotation Zrotation
							JOINT LeftShoulder
							{
								OFFSET 3.288150 8.794197 -1.372250
								CHANNELS 3 Xrotation Yrotation Zrotation
								JOINT LeftShoulder_split
								{
									OFFSET 3.288150 8.794197 -1.372250
									CHANNELS 3 Xrotation Yrotation Zrotation
									JOINT LeftArm
									{
										OFFSET 11.953299 -2.279007 -0.146200
										CHANNELS 3 Xrotation Yrotation Zrotation
										JOINT LeftForeArm
										{
											OFFSET 18.448900 0.000000 0.000000
											CHANNELS 3 Xrotation Yrotation Zrotation
											JOINT LeftHand
											{
												OFFSET 29.527798 0.000000 0.000000
												CHANNELS 3 Xrotation Yrotation Zrotation
												End Site
												{
													OFFSET 0 0 0
												}
											}
										}
									}
								}
							}
						}
						JOINT RightShoulder_virtual
						{
							OFFSET 0.000000 0.000000 0.000000
							CHANNELS 3 Xrotation Yrotation Zrotation
							JOINT RightShoulder
							{
								OFFSET -3.249400 8.794197 -1.372250
								CHANNELS 3 Xrotation Yrotation Zrotation
								JOINT RightShoulder_split
								{
									OFFSET -3.249400 8.794197 -1.372250
									CHANNELS 3 Xrotation Yrotation Zrotation
									JOINT RightArm
									{
										OFFSET -11.953299 -2.279007 -0.146200
										CHANNELS 3 Xrotation Yrotation Zrotation
										JOINT RightForeArm
										{
											OFFSET -18.448900 0.000000 0.000000
											CHANNELS 3 Xrotation Yrotation Zrotation
											JOINT RightHand
											{
												OFFSET -29.527802 0.000000 0.000000
												CHANNELS 3 Xrotation Yrotation Zrotation
												End Site
												{
													OFFSET 0 0 0
												}
											}
										}
									}
								}
							}
						}
					}
				}
			}
		}
	}
}
MOTION
Frames: 6
Frame Time: 0.03333333
-11.156916 136.562546 0.937363 0.000000 0.000000 0.000000 0.937246 -24.488680 -0.538497 -154.328083 -38.321275 20.112720 125.217503 -24.671692 -6.487097 47.521758 -16.267631 -19.790360 -6.597279 -0.835549 7.977431 0.000000 0.000000 0.000000 0.916775 -29.803705 -1.299762 -114.014948 45.699488 -60.551102 115.646127 21.084271 10.225888 28.219534 32.991081 32.963798 -1.692963 -1.539034 -0.217666 0.000000 0.000000 0.000000 3.915101 -27.900600 0.163265 30.918941 7.733155 -1.170393 5.275027 1.195242 1.073833 -1.799064 2.317585 0.279829 0.000000 0.000000 0.000000 8.157325 1.034461 2.223700 5.849969 0.352985 3.559187 -3.865855 35.072898 -23.260546 0.000000 0.000000 0.000000 6.813374 1.791838 0.600444 1.070792 -3.030058 9.819112 1.818486 -3.232566 2.665105 -36.634054 20.155104 17.841318 -2.783876 -9.102390 -1.964003 0.000000 0.000000 0.000000 8.325911 1.642010 0.980536 -3.390019 -4.675766 -30.110797 2.759388 -2.375530 -1.423583 -53.030060 8.060107 -6.220585 1.674960 22.058777 -1.731877 0.000000 0.000000 0.000000 
-11.651639 134.207855 1.249077 0.000000 0.000000 0.000000 1.166307 -24.654043 -0.764012 -157.779856 -37.293038 20.253693 128.338367 -24.822072 -5.483725 54.458259 -18.932174 -12.764348 -5.464855 -0.805741 8.148019 0.000000 0.000000 0.000000 1.747214 -27.777128 -1.346733 -102.987669 38.263758 -64.755671 109.585420 19.266400 10.436385 22.924842 30.024610 34.815172 -5.230940 -2.035644 0.169949 0.000000 0.000000 0.000000 4.741411 -27.465645 0.058764 30.428100 9.333997 -1.272163 5.157165 1.546587 0.906060 -0.939491 1.922307 1.322165 0.000000 0.000000 0.000000 8.723812 0.982072 2.045013 7.209955 -0.030851 3.835450 -3.857194 34.639004 -23.013849 0.000000 0.000000 0.000000 6.629202 1.958031 0.266343 1.119940 -2.920929 9.498190 0.852658 -3.413257 0.664820 -35.481231 17.251914 23.612384 -2.717749 -6.967298 -1.305612 0.000000 0.000000 0.000000 8.874618 1.719477 0.672693 -2.989504 -2.419417 -30.830313 1.864652 -1.585227 -1.453713 -45.215736 3.642002 -15.000146 2.216010 23.560456 -2.028822 0.000000 0.000000 0.000000 
-12.001928 129.011383 0.442116 0.000000 0.000000 0.000000 0.554858 -24.352903 -1.283800 -155.959570 -35.088225 22.699599 129.901933 -23.546997 -4.176706 55.992795 -20.025975 -6.243420 -6.421813 -0.671234 7.322846 0.000000 0.000000 0.000000 1.692582 -24.758760 -1.823478 -92.198770 28.882295 -60.796279 105.654475 16.677819 8.685354 12.214338 23.740874 34.875445 -2.949760 -2.230051 0.577976 0.000000 0.000000 0.000000 3.675827 -25.818953 -0.647397 29.673590 10.247504 -1.162653 4.972300 1.804246 0.573131 0.636525 1.892893 1.698866 0.000000 0.000000 0.000000 8.980808 0.901159 1.654740 7.972819 -0.134443 4.171093 -3.493266 34.195021 -22.551425 0.000000 0.000000 0.000000 6.401766 2.003656 -0.063999 1.064107 -2.736714 9.225793 0.191547 -4.114005 -1.440171 -33.590580 13.613933 27.545436 -2.308186 -4.576663 -0.546789 0.000000 0.000000 0.000000 9.144485 1.634818 0.222059 -1.962297 0.700196 -29.934701 1.170587 -0.292012 -1.430309 -37.922860 -0.631237 -20.719348 2.052043 26.966676 -2.052520 0.000000 0.000000 0.000000 
-11.931114 122.092422 -0.280239 0.000000 0.000000 0.000000 -0.773891 -23.620375 -2.125795 -149.740655 -31.542264 26.169040 129.563156 -21.019479 -3.054640 54.384777 -20.032540 -1.286732 -9.917863 -0.364154 5.727110 0.000000 0.000000 0.000000 1.020064 -21.399104 -2.525729 -81.593727 20.098414 -50.414784 104.523867 13.930021 5.583292 0.826449 16.886832 32.097832 0.818536 -2.065870 0.216381 0.000000 0.000000 0.000000 1.735092 -23.286423 -1.549419 28.394806 10.196339 -0.854535 4.578139 1.927430 0.209067 1.213077 2.239246 1.241024 0.000000 0.000000 0.000000 8.764899 0.829946 1.208699 8.253557 0.102717 4.532940 -2.704393 33.870519 -22.001851 0.000000 0.000000 0.000000 5.923505 1.992252 -0.304017 0.890173 -2.531468 9.046133 -0.044663 -4.806256 -2.831315 -31.762613 11.689578 29.147515 -1.713893 -1.730917 0.063208 0.000000 0.000000 0.000000 8.866680 1.457843 -0.165558 -0.700948 3.758520 -27.666998 1.304224 0.663206 -1.285393 -33.483797 -4.776014 -22.132267 1.292314 30.488407 -1.927790 0.000000 0.000000 0.000000 
-11.388021 114.797943 -1.422592 0.000000 0.000000 0.000000 -2.296512 -23.397732 -3.048698 -139.272898 -26.733429 29.304213 126.496784 -17.114789 -2.654163 51.339554 -18.016272 2.088233 -13.522071 0.103426 3.382168 0.000000 0.000000 0.000000 0.027529 -19.069055 -3.299438 -71.860830 13.792212 -37.949764 103.541344 11.781506 2.422509 -6.843674 12.357570 28.286609 0.871092 -1.794871 -0.914251 0.000000 0.000000 0.000000 -0.271518 -20.680706 -2.474887 26.431790 9.210095 -0.485467 3.956872 1.877641 -0.050285 2.245888 1.845036 0.430905 0.000000 0.000000 0.000000 7.970675 0.795377 0.837512 8.245087 0.443017 4.774598 -1.708055 33.421352 -21.237563 0.000000 0.000000 0.000000 5.365974 1.922576 -0.351423 0.752467 -2.039146 8.935777 0.079708 -4.601313 -3.215200 -29.950274 12.851891 27.687360 -1.211250 0.912143 0.284043 0.000000 0.000000 0.000000 8.026504 1.280816 -0.394943 0.355802 5.875508 -24.447144 1.264314 1.408210 -1.096810 -31.975510 -9.803963 -19.667733 0.127872 32.206562 -1.829642 0.000000 0.000000 0.000000 
-10.662455 108.084511 -2.119389 0.000000 0.000000 0.000000 -3.642126 -23.515242 -3.900249 -123.907418 -20.237745 30.747357 119.774921 -11.524523 -3.337355 45.956880 -13.546050 4.001995 -13.796472 0.782493 0.626565 0.000000 0.000000 0.000000 -1.042698 -18.358066 -4.009198 -62.893570 9.383731 -27.079923 99.795477 10.422046 0.003616 -9.881461 10.366007 24.615479 -3.529125 -1.380155 -2.087845 0.000000 0.000000 0.000000 -1.542298 -18.464090 -3.470784 24.069648 7.551914 -0.124444 3.236095 1.721248 -0.138107 3.016263 1.794857 -0.102282 0.000000 0.000000 0.000000 6.770346 0.789409 0.574281 8.015259 0.829875 4.889324 -0.484671 32.876364 -20.324737 0.000000 0.000000 0.000000 4.771379 1.784957 -0.276375 0.633536 -1.067906 8.689470 0.268524 -3.937600 -2.309132 -27.231693 17.841101 21.931707 -1.002264 2.441450 0.100398 0.000000 0.000000 0.000000 6.846284 1.139009 -0.482329 1.104788 6.541150 -20.610796 1.225126 1.319736 -1.368277 -31.678656 -16.213834 -13.427733 -1.076946 31.342536 -1.921259 0.000000 0.000000 0.000000 
